<?xml version="1.0" encoding="UTF-8" standalone="no"?>
<svg
   fill="none"
   viewBox="0 0 24 24"
   stroke-width="1.5"
   stroke="currentColor"
   class="w-16 h-16"
   version="1.1"
   id="svg80"
   sodipodi:docname="beakercolored.svg"
   inkscape:version="1.2.2 (b0a8486541, 2022-12-01)"
   xmlns:inkscape="http://www.inkscape.org/namespaces/inkscape"
   xmlns:sodipodi="http://sodipodi.sourceforge.net/DTD/sodipodi-0.dtd"
   xmlns="http://www.w3.org/2000/svg"
   xmlns:svg="http://www.w3.org/2000/svg">
  <defs
     id="defs84" />
  <sodipodi:namedview
     id="namedview82"
     pagecolor="#ffffff"
     bordercolor="#000000"
     borderopacity="0.25"
     inkscape:showpageshadow="2"
     inkscape:pageopacity="0.0"
     inkscape:pagecheckerboard="0"
     inkscape:deskcolor="#d1d1d1"
     showgrid="false"
     inkscape:zoom="33.583333"
     inkscape:cx="12"
     inkscape:cy="12"
     inkscape:window-width="1920"
     inkscape:window-height="991"
     inkscape:window-x="0"
     inkscape:window-y="0"
     inkscape:window-maximized="1"
     inkscape:current-layer="svg80" />
  <path
     stroke-linecap="round"
     stroke-linejoin="round"
     d="M9.75 3.104v5.714a2.25 2.25 0 01-.659 1.591L5 14.5M9.75 3.104c-.251.023-.501.05-.75.082m.75-.082a24.301 24.301 0 014.5 0m0 0v5.714c0 .597.237 1.17.659 1.591L19.8 15.3M14.25 3.104c.251.023.501.05.75.082M19.8 15.3l-1.57.393A9.065 9.065 0 0112 15a9.065 9.065 0 00-6.23-.693L5 14.5m14.8.8l1.402 1.402c1.232 1.232.65 3.318-1.067 3.611A48.309 48.309 0 0112 21c-2.773 0-5.491-.235-8.135-.687-1.718-.293-2.3-2.379-1.067-3.61L5 14.5"
     id="path78" />
  <path
     style="fill:#2aff2a;stroke-width:0.044665"
     d="M 10.675357,20.217627 C 8.8061083,20.162174 7.0519879,20.010018 5.1662531,19.739758 3.8453045,19.550441 3.6355796,19.495045 3.3529315,19.26079 2.9341003,18.913668 2.7952224,18.221894 3.0370525,17.687345 c 0.096909,-0.21421 0.1471622,-0.26974 1.2312111,-1.36049 l 1.1301787,-1.137164 0.4943271,-0.119348 c 1.1198722,-0.270377 1.9818908,-0.325127 3.0671834,-0.194807 0.9470608,0.11372 1.9018092,0.407599 2.8059192,0.863684 0.585843,0.295532 1.542571,0.620807 2.260377,0.768499 0.794269,0.163423 0.989122,0.180904 2.023379,0.181526 1.176324,7.07e-4 1.469256,-0.03624 2.700256,-0.340549 l 0.810736,-0.20042 0.640119,0.644373 c 0.58972,0.59364 0.649021,0.663019 0.753188,0.881197 0.110854,0.232182 0.113056,0.243536 0.112314,0.579256 -6.26e-4,0.28336 -0.01215,0.370683 -0.06679,0.506203 -0.142518,0.35349 -0.44463,0.633731 -0.802276,0.744196 -0.511172,0.157885 -3.103515,0.486787 -4.802638,0.609332 -1.444139,0.104155 -3.329479,0.14602 -4.719184,0.104794 z"
     id="path259" />
</svg>
