<?xml version="1.0" encoding="UTF-8" standalone="no"?>
<svg
   fill="none"
   viewBox="0 0 24 24"
   stroke-width="1.5"
   stroke="currentColor"
   class="w-16 h-16"
   version="1.1"
   id="svg92"
   sodipodi:docname="profilecolored.svg"
   inkscape:version="1.2.2 (b0a8486541, 2022-12-01)"
   xmlns:inkscape="http://www.inkscape.org/namespaces/inkscape"
   xmlns:sodipodi="http://sodipodi.sourceforge.net/DTD/sodipodi-0.dtd"
   xmlns="http://www.w3.org/2000/svg"
   xmlns:svg="http://www.w3.org/2000/svg">
  <defs
     id="defs96" />
  <sodipodi:namedview
     id="namedview94"
     pagecolor="#ffffff"
     bordercolor="#000000"
     borderopacity="0.25"
     inkscape:showpageshadow="2"
     inkscape:pageopacity="0.0"
     inkscape:pagecheckerboard="0"
     inkscape:deskcolor="#d1d1d1"
     showgrid="false"
     inkscape:zoom="33.583333"
     inkscape:cx="12"
     inkscape:cy="12"
     inkscape:window-width="1920"
     inkscape:window-height="991"
     inkscape:window-x="0"
     inkscape:window-y="0"
     inkscape:window-maximized="1"
     inkscape:current-layer="svg92" />
  <path
     stroke-linecap="round"
     stroke-linejoin="round"
     d="M17.982 18.725A7.488 7.488 0 0012 15.75a7.488 7.488 0 00-5.982 2.975m11.963 0a9 9 0 10-11.963 0m11.963 0A8.966 8.966 0 0112 21a8.966 8.966 0 01-5.982-2.275M15 9.75a3 3 0 11-6 0 3 3 0 016 0z"
     id="path90" />
  <path
     style="fill:#ff6600;stroke-width:0.044665"
     d="M 5.8002076,17.412223 C 4.698235,16.15154 4.0004873,14.556971 3.8097982,12.863524 3.7642161,12.458724 3.7640195,11.535586 3.8094304,11.136476 3.9808015,9.6303225 4.5279439,8.2526909 5.4392683,7.0327629 5.7828907,6.572779 6.5773867,5.7774775 7.0297039,5.440715 8.6352125,4.2453698 10.505786,3.6750502 12.462065,3.7844414 c 2.079781,0.1162973 3.970496,0.9819294 5.434709,2.4881905 1.513897,1.5573714 2.325408,3.554685 2.327038,5.7273681 0.0015,1.971687 -0.686919,3.842672 -1.966176,5.343839 l -0.21879,0.256743 -0.347403,-0.336271 c -1.248862,-1.208848 -2.880686,-1.984052 -4.664148,-2.215723 -0.523575,-0.06801 -1.530854,-0.06802 -2.05459,-2.5e-5 -0.953913,0.123852 -1.7498209,0.364284 -2.6203477,0.79157 -0.808119,0.396654 -1.4334691,0.832238 -2.0432362,1.423206 l -0.3459657,0.3353 z m 6.6308454,-3.924719 c 1.649587,-0.188966 2.990843,-1.449301 3.274715,-3.077143 0.05947,-0.341012 0.05947,-0.9759884 0,-1.3170001 C 15.474642,7.7679862 14.521455,6.6445718 13.25062,6.1997536 12.803591,6.043284 12.542689,6.0020367 12,6.0020367 c -0.542689,0 -0.803591,0.041247 -1.25062,0.1977169 -1.2708352,0.4448182 -2.2240223,1.5682326 -2.4551482,2.8936073 -0.059467,0.3410117 -0.059467,0.9759881 0,1.3170001 0.3399096,1.949186 2.1606392,3.303522 4.1368212,3.077143 z"
     id="path271" />
</svg>
