<?xml version="1.0" encoding="UTF-8" standalone="no"?>
<svg
   fill="none"
   viewBox="0 0 24 24"
   stroke-width="1.5"
   stroke="currentColor"
   class="w-16 h-16"
   version="1.1"
   id="svg305"
   sodipodi:docname="stackcolored.svg"
   inkscape:version="1.2.2 (b0a8486541, 2022-12-01)"
   xmlns:inkscape="http://www.inkscape.org/namespaces/inkscape"
   xmlns:sodipodi="http://sodipodi.sourceforge.net/DTD/sodipodi-0.dtd"
   xmlns="http://www.w3.org/2000/svg"
   xmlns:svg="http://www.w3.org/2000/svg">
  <defs
     id="defs309" />
  <sodipodi:namedview
     id="namedview307"
     pagecolor="#ffffff"
     bordercolor="#000000"
     borderopacity="0.25"
     inkscape:showpageshadow="2"
     inkscape:pageopacity="0.0"
     inkscape:pagecheckerboard="0"
     inkscape:deskcolor="#d1d1d1"
     showgrid="false"
     inkscape:zoom="33.583333"
     inkscape:cx="12"
     inkscape:cy="12"
     inkscape:window-width="1920"
     inkscape:window-height="991"
     inkscape:window-x="0"
     inkscape:window-y="0"
     inkscape:window-maximized="1"
     inkscape:current-layer="svg305" />
  <path
     stroke-linecap="round"
     stroke-linejoin="round"
     d="M6.429 9.75L2.25 12l4.179 2.25m0-4.5l5.571 3 5.571-3m-11.142 0L2.25 7.5 12 2.25l9.75 5.25-4.179 2.25m0 0L21.75 12l-4.179 2.25m0 0l4.179 2.25L12 21.75 2.25 16.5l4.179-2.25m11.142 0l-5.571 3-5.571-3"
     id="path303" />
  <path
     style="fill:#d40000;stroke-width:0.044665"
     d="M 7.942928,14.19496 C 5.719727,12.996494 3.9007444,12.008639 3.9007444,11.999727 c 0,-0.01777 0.1508756,-0.100533 1.5706456,-0.861584 l 0.9602237,-0.514717 2.6306577,1.417266 c 1.7285136,0.931236 2.6833106,1.42942 2.7841926,1.452706 0.118462,0.02735 0.188443,0.02738 0.306342,1.7e-4 0.09985,-0.02305 1.064549,-0.5262 2.783729,-1.451894 1.447007,-0.779144 2.642231,-1.412099 2.656054,-1.406568 0.09573,0.0383 2.506667,1.350795 2.506667,1.364606 0,0.01548 -8.084153,4.379811 -8.10552,4.375868 -0.0047,-8.76e-4 -1.827607,-0.982155 -4.050808,-2.18062 z"
     id="path380" />
</svg>
